<svg width="133" height="141" viewBox="0 0 133 141" fill="none" xmlns="http://www.w3.org/2000/svg">
<g clip-path="url(#clip0_226_15)" filter="url(#filter0_d_226_15)">
<path d="M68.2372 39.5791C68.0058 40.2772 67.788 40.5951 67.3172 40.7183C60.0153 42.63 67.5539 32.035 53.0328 15.7902C50.4487 12.8976 58.4973 8.74543 60.2088 11.4635C64.4936 16.7576 69.2302 36.5187 68.2372 39.5791Z" fill="#4C4240"/>
<mask id="mask0_226_15" style="mask-type:luminance" maskUnits="userSpaceOnUse" x="11" y="35" width="111" height="98">
<path d="M11.1415 35.1225H121.796V133H11.1415V35.1225Z" fill="white"/>
</mask>
<g mask="url(#mask0_226_15)">
<path d="M119.763 79.1487C110.686 107.197 70.4668 133.004 66.4688 133.004C62.7009 133.004 22.8877 107.888 13.2277 79.1487C5.05862 54.8444 22.2032 33.779 41.6842 35.2781C61.6145 36.7798 66.845 49.2432 66.8436 52.0871C66.8436 47.6264 71.6885 36.7568 91.3103 35.2781C110.732 33.7831 127.794 54.337 119.763 79.1487Z" fill="#FF3131"/>
</g>
<path d="M104.308 3.47841C104.633 4.38218 103.051 13.681 98.7881 20.6324C88.6302 37.1979 70.5819 35.6772 70.2585 34.7829C69.7796 33.5598 67.2076 24.5005 74.2308 15.8957C81.9236 6.49278 103.055 0.00269316 104.308 3.47841Z" fill="#428859"/>
<path d="M44.8583 62.1665C44.8583 62.1665 54.3154 60.7216 56.9996 66.5433C59.6825 72.3664 58.3986 84.4347 46.3668 83.7974C44.0912 78.4425 44.8583 62.1665 44.8583 62.1665ZM85.6456 83.7974C97.6773 84.4347 99.401 72.1431 96.277 66.5433C93.1246 60.892 84.1357 62.1665 84.1357 62.1665C84.1357 62.1665 83.3699 78.4425 85.6456 83.7974Z" fill="#F4F4F4"/>
<path d="M44.7419 90.2875C44.9678 92.21 41.1471 94.2381 36.2075 94.8158C31.2665 95.3935 26.6381 93.8796 26.4122 91.9557C26.1849 90.0331 29.735 88.089 35.389 87.8508C40.3583 87.6425 44.5159 88.365 44.7419 90.2875ZM98.0128 87.8508C92.3575 88.089 88.8087 90.0331 89.0346 91.9557C89.2606 93.8796 93.8904 95.3935 98.83 94.8158C103.771 94.2381 107.345 92.2114 107.119 90.2888C106.894 88.365 102.981 87.6425 98.0128 87.8508Z" fill="#DD4E69"/>
<mask id="mask1_226_15" style="mask-type:luminance" maskUnits="userSpaceOnUse" x="25" y="56" width="83" height="40">
<path d="M25.6302 56.8711H107.605V95.5762H25.6302V56.8711Z" fill="white"/>
</mask>
<g mask="url(#mask1_226_15)">
<path d="M55.5385 63.9294C55.4857 63.8766 55.4289 63.8401 55.3707 63.8158C54.5346 63.1379 53.6213 62.6509 52.654 62.3099C53.0707 61.1396 53.2114 59.8746 53.0869 58.6407C53.0612 58.3783 52.8813 58.1523 52.5972 58.1523C52.3536 58.1523 52.0803 58.3769 52.1074 58.6407C52.2238 59.7921 52.1006 60.9367 51.7178 62.0258C50.722 61.7715 49.6802 61.6416 48.6195 61.5875C48.514 61.5834 48.4071 61.5861 48.3016 61.5821C48.1906 60.1763 48.1811 58.7639 48.3273 57.3595C48.3543 57.097 48.0824 56.8711 47.8361 56.8711C47.5493 56.8711 47.3748 57.0957 47.3464 57.3595C47.2003 58.7666 47.2111 60.1818 47.322 61.5902C46.2316 61.6348 45.137 61.8026 44.0858 62.1097C43.6285 61.2682 43.2848 60.4523 42.998 59.5269C42.9222 59.282 42.653 59.1021 42.396 59.1846C42.1497 59.2645 41.9725 59.5242 42.0537 59.7867C42.3351 60.6959 42.7017 61.5793 43.1455 62.4236C42.5407 62.6536 41.9562 62.9309 41.4029 63.2597C39.3843 64.4611 37.6823 66.2375 36.6838 68.3698C35.5839 70.7185 35.2578 73.5069 35.8599 76.0342C36.4119 78.3505 37.8135 80.1742 39.5331 81.7653C41.25 83.3523 43.4364 84.1979 45.7553 84.4184C50.2241 84.8446 54.9364 82.8017 57.2729 78.9038C58.4473 76.9461 58.9452 74.6556 58.933 72.388C58.9195 69.8743 58.2782 67.4092 56.771 65.3662C56.3949 64.8575 55.9836 64.3799 55.5385 63.9294ZM57.0889 77.1071C55.5209 80.8886 51.6907 83.2265 47.6643 83.4727C47.4573 83.4849 47.249 83.4876 47.0406 83.4903C47.7644 83.1291 48.4152 82.5933 48.928 81.9872C50.1105 80.5896 50.6841 78.8281 50.9723 77.0476C51.5662 73.3703 50.9574 69.5414 49.2229 66.2402C48.5126 64.8873 47.594 63.5817 46.3668 62.659C46.5008 62.6428 46.6347 62.6211 46.77 62.6089C48.8766 62.4195 51.4932 62.4993 53.4103 63.4518C53.9921 63.7414 54.3086 64.1242 54.8038 64.5437C54.8255 64.5612 54.8471 64.5748 54.8688 64.5897C56.472 66.2294 57.5476 68.359 57.8452 70.6427C58.1267 72.7993 57.9264 75.0885 57.0889 77.1071ZM42.5407 87.6885C42.4474 87.679 42.3689 87.6953 42.3026 87.7264C40.6777 87.4571 39.0433 87.2501 37.4049 87.1838C37.2507 87.0918 37.0505 87.0716 36.8854 87.169C35.638 87.1433 34.3892 86.8767 33.1418 87.0621C31.6509 87.284 29.8311 87.6655 28.4322 88.2297C27.2389 88.7127 25.9347 89.841 25.7534 91.2332C25.5653 92.6687 26.9927 93.9878 28.255 94.5209C28.5323 94.6386 28.8178 94.7238 29.1073 94.7901C29.1222 94.7942 29.1384 94.7982 29.1533 94.7996C29.5917 94.897 30.0408 94.9511 30.4887 94.9917C31.1205 95.0512 31.7537 95.0986 32.3882 95.1392C32.56 95.2921 32.8306 95.3394 33.0241 95.1771C34.7261 95.2596 36.4619 95.2366 38.1518 94.9687C38.2708 94.9971 38.3966 94.9822 38.5022 94.9078C39.7171 94.69 40.9037 94.3409 42.0307 93.8052C43.3552 93.1747 45.0761 92.1938 45.064 90.5243C45.0545 89.1145 43.9532 87.8292 42.5407 87.6885ZM27.0373 91.4605C27.1009 90.3281 28.4105 89.7179 29.3333 89.3783C30.2587 89.0374 31.2098 88.7587 32.1758 88.5517C31.0488 90.2442 29.9746 91.9706 28.968 93.7362C27.9722 93.3912 26.9724 92.5997 27.0373 91.4605ZM29.9678 93.9662C31.0393 92.0991 32.1839 90.274 33.3907 88.4894C33.4286 88.434 33.4503 88.3785 33.4624 88.3244C34.3757 88.1931 35.293 88.1323 36.2116 88.1282C34.9399 90.1238 33.6965 92.1383 32.5059 94.184C31.659 94.1502 30.7971 94.1001 29.9678 93.9662ZM33.618 94.2246C34.8235 92.1735 36.0763 90.1509 37.3589 88.1485C38.4778 88.1931 39.5967 88.3081 40.7061 88.4637C39.8348 90.347 38.9026 92.2006 37.9191 94.027C36.4985 94.2422 35.0413 94.2719 33.618 94.2246ZM44.0763 90.7407C43.9978 91.3428 43.4972 91.7757 43.0251 92.1018C42.4812 92.4779 41.8994 92.8026 41.2947 93.0719C40.6047 93.3803 39.8876 93.6117 39.1556 93.7862C40.0554 92.0856 40.9118 90.3646 41.7114 88.6153C41.9427 88.6518 42.1727 88.6897 42.4014 88.7289C42.5137 88.7479 42.6151 88.7316 42.7004 88.6924C43.5595 88.8845 44.1873 89.8924 44.0763 90.7407ZM70.6171 84.6579C70.4533 84.0518 69.5076 84.3088 69.6727 84.9177C69.9243 85.8498 69.4008 86.7644 68.8785 87.5018C68.363 88.2283 67.6947 88.9941 66.7206 88.9264C66.2335 88.8926 65.7627 88.6951 65.3338 88.4719C64.9509 88.2716 64.5802 88.0511 64.3543 87.6696C63.9051 86.9146 64.035 85.9243 64.1594 85.0976C64.2217 84.6931 63.8429 84.317 63.441 84.5456C63.3355 84.6051 63.2327 84.6687 63.1271 84.7283C62.7659 84.9339 62.8579 85.3682 63.119 85.5535C63.046 86.2192 63.0351 86.8984 63.2354 87.5397C63.5236 88.4583 64.2041 89.0144 65.0483 89.4203C65.967 89.8627 67.0047 90.1062 67.972 89.6624C68.7973 89.285 69.398 88.5003 69.8851 87.7616C70.4858 86.847 70.9147 85.7551 70.6171 84.6579ZM94.6467 63.9294C94.594 63.8766 94.5371 63.8401 94.479 63.8158C93.6415 63.1379 92.7283 62.6509 91.7622 62.3099C92.179 61.1396 92.3197 59.8746 92.1952 58.6407C92.1681 58.3783 91.9895 58.1523 91.7054 58.1523C91.4605 58.1523 91.1886 58.3769 91.2157 58.6407C91.3307 59.7921 91.2075 60.9367 90.826 62.0258C89.8289 61.7715 88.7885 61.6416 87.7264 61.5875C87.6222 61.5834 87.5153 61.5861 87.4098 61.5821C87.2989 60.1763 87.2881 58.7639 87.4342 57.3595C87.4612 57.097 87.1893 56.8711 86.9444 56.8711C86.6576 56.8711 86.4817 57.0957 86.4546 57.3595C86.3085 58.7666 86.3193 60.1818 86.4303 61.5902C85.3398 61.6348 84.2453 61.8026 83.194 62.1097C82.7354 61.2682 82.3931 60.4523 82.1063 59.5269C82.0305 59.282 81.7599 59.1021 81.5029 59.1846C81.2566 59.2645 81.0794 59.5242 81.1606 59.7867C81.4433 60.6959 81.81 61.5793 82.2537 62.4236C81.649 62.6536 81.0645 62.9309 80.5111 63.2597C78.4926 64.4611 76.7905 66.2375 75.7921 68.3698C74.6921 70.7185 74.3661 73.5069 74.9681 76.0342C75.5188 78.3505 76.9204 80.1742 78.6414 81.7653C80.3569 83.3523 82.5446 84.1979 84.8636 84.4184C89.3324 84.8446 94.3667 82.9992 96.7032 79.1013C97.8776 77.1423 98.0534 74.6556 98.0413 72.388C98.0277 69.8743 97.3864 67.4092 95.8793 65.3662C95.5031 64.8575 95.0918 64.3799 94.6467 63.9294ZM96.1959 77.1071C94.6278 80.8886 90.7976 83.2265 86.7712 83.4727C86.5656 83.4849 86.3559 83.4876 86.1475 83.4903C86.8727 83.1291 87.5235 82.5933 88.0362 81.9872C89.2174 80.5896 89.791 78.8281 90.0792 77.0476C90.6745 73.3703 90.0643 69.5414 88.3312 66.2402C87.6209 64.8873 86.7022 63.5817 85.4751 62.659C85.609 62.6428 85.7416 62.6211 85.8769 62.6089C87.9848 62.4195 90.4039 62.6062 92.3224 63.5601C92.9041 63.8496 93.4426 64.2095 93.9378 64.6289C93.9594 64.6478 93.9811 64.6614 94.0027 64.6749C95.606 66.316 96.6559 68.359 96.9535 70.6427C97.2349 72.7993 97.0347 75.0885 96.1959 77.1071ZM105.021 87.6885C104.926 87.679 104.848 87.6953 104.782 87.7264C103.158 87.4571 101.522 87.2501 99.884 87.1838C99.7297 87.0918 99.5295 87.0716 99.3658 87.169C98.1184 87.1433 96.8683 87.2028 95.6222 87.3881C94.1313 87.6087 92.6376 87.9916 91.2387 88.5557C90.0454 89.0387 88.7411 89.841 88.5598 91.2332C88.3718 92.6687 89.4717 93.9878 90.7354 94.5209C91.0114 94.6386 91.2968 94.7238 91.5877 94.7901C91.6026 94.7942 91.6175 94.7982 91.6324 94.7996C92.0721 94.897 92.5199 94.9511 92.9691 94.9917C93.6009 95.0512 94.2341 95.0986 94.8673 95.1392C95.0404 95.2921 95.311 95.3394 95.5031 95.1771C97.2051 95.2596 98.9423 95.5626 100.631 95.2948C100.75 95.3232 100.876 95.3083 100.981 95.2339C102.196 95.0147 104.038 94.3409 105.163 93.8052C106.488 93.1747 107.557 92.1938 107.544 90.5243C107.534 89.1145 106.432 87.8292 105.021 87.6885ZM89.5164 91.4605C89.5813 90.3281 90.8896 89.7179 91.8123 89.3783C92.7391 89.0374 93.6902 88.7587 94.6562 88.5517C93.5292 90.2442 92.4536 91.9706 91.4484 93.7362C90.4512 93.3912 89.4514 92.5997 89.5164 91.4605ZM92.4468 93.9662C93.5197 92.0991 94.6643 90.274 95.8711 88.4894C95.909 88.434 95.9307 88.3785 95.9429 88.3244C96.8547 88.1931 97.7734 88.1323 98.692 88.1282C97.4203 90.1238 96.1769 92.1383 94.9863 94.184C94.1394 94.1502 93.2775 94.1001 92.4468 93.9662ZM96.0984 94.2246C97.3026 92.1735 98.5567 90.1509 99.8393 88.1485C100.958 88.1931 102.076 88.3081 103.187 88.4637C102.315 90.347 101.383 92.2006 100.398 94.027C98.9775 94.2422 97.5217 94.2719 96.0984 94.2246ZM106.555 90.7407C106.477 91.3428 105.978 91.7757 105.505 92.1018C104.962 92.4779 104.378 92.8026 103.775 93.0719C103.084 93.3803 102.367 93.6117 101.635 93.7862C102.534 92.0856 103.391 90.3646 104.192 88.6153C104.422 88.6518 104.652 88.6897 104.882 88.7289C104.994 88.7479 105.094 88.7316 105.181 88.6924C106.039 88.8845 106.666 89.8924 106.555 90.7407Z" fill="black"/>
</g>
</g>
<defs>
<filter id="filter0_d_226_15" x="-4" y="0" width="141" height="141" filterUnits="userSpaceOnUse" color-interpolation-filters="sRGB">
<feFlood flood-opacity="0" result="BackgroundImageFix"/>
<feColorMatrix in="SourceAlpha" type="matrix" values="0 0 0 0 0 0 0 0 0 0 0 0 0 0 0 0 0 0 127 0" result="hardAlpha"/>
<feOffset dy="4"/>
<feGaussianBlur stdDeviation="2"/>
<feComposite in2="hardAlpha" operator="out"/>
<feColorMatrix type="matrix" values="0 0 0 0 0 0 0 0 0 0 0 0 0 0 0 0 0 0 0.25 0"/>
<feBlend mode="normal" in2="BackgroundImageFix" result="effect1_dropShadow_226_15"/>
<feBlend mode="normal" in="SourceGraphic" in2="effect1_dropShadow_226_15" result="shape"/>
</filter>
<clipPath id="clip0_226_15">
<rect width="133" height="133" fill="white"/>
</clipPath>
</defs>
</svg>
